<svg
  xmlns="http://www.w3.org/2000/svg"
  width="39"
  height="40"
  viewBox="0 0 34.158 34.158"
>
  <path
    id="facebook"
    d="M29.557,0H4.6A4.6,4.6,0,0,0,0,4.6V29.555a4.6,4.6,0,0,0,4.6,4.6H16.911l.021-12.206H13.761a.748.748,0,0,1-.748-.745L13,17.272a.748.748,0,0,1,.748-.751h3.165v-3.8c0-4.412,2.695-6.814,6.63-6.814h3.23a.748.748,0,0,1,.748.748V9.971a.748.748,0,0,1-.748.748H24.789c-2.14,0-2.555,1.017-2.555,2.51v3.291h4.7a.748.748,0,0,1,.743.836l-.466,3.935a.748.748,0,0,1-.743.66H22.256l-.021,12.206h7.322a4.6,4.6,0,0,0,4.6-4.6V4.6A4.6,4.6,0,0,0,29.557,0Z"
    transform="translate(-0.002)"
    fill="#0a539e"
  />
</svg>