<svg
  xmlns="http://www.w3.org/2000/svg"
  width="39"
  height="40"
  viewBox="0 0 34.073 34.073"
  >
  <path
    id="linkedin"
    d="M30.991,0H3.082A3.082,3.082,0,0,0,0,3.082V30.991a3.082,3.082,0,0,0,3.082,3.082H30.991a3.082,3.082,0,0,0,3.082-3.082V3.082A3.082,3.082,0,0,0,30.991,0ZM10.544,29.421a.9.9,0,0,1-.9.9H5.829a.9.9,0,0,1-.9-.9V13.416a.9.9,0,0,1,.9-.9H9.647a.9.9,0,0,1,.9.9ZM7.738,11.01a3.627,3.627,0,1,1,3.627-3.627A3.627,3.627,0,0,1,7.738,11.01ZM30.5,29.493a.825.825,0,0,1-.825.825h-4.1a.825.825,0,0,1-.825-.825V21.986c0-1.12.329-4.908-2.927-4.908-2.525,0-3.037,2.593-3.14,3.756v8.659a.825.825,0,0,1-.825.825H13.9a.825.825,0,0,1-.825-.825V13.343a.825.825,0,0,1,.825-.825h3.963a.825.825,0,0,1,.825.825v1.4c.936-1.405,2.328-2.49,5.29-2.49,6.561,0,6.523,6.129,6.523,9.5v7.746Z"
    fill="#0a539e"
  />
</svg>