<svg
  id="video-play-button"
  xmlns="http://www.w3.org/2000/svg"
  width="39"
  height="40"
  viewBox="0 0 34.158 34.158"
>
  <g id="Group_573" data-name="Group 573">
    <g id="Group_572" data-name="Group 572">
      <g id="Group_571" data-name="Group 571">
        <path
          id="Path_48"
          data-name="Path 48"
          d="M27.753,0H6.4A6.4,6.4,0,0,0,0,6.4V27.753a6.4,6.4,0,0,0,6.4,6.4H27.753a6.4,6.4,0,0,0,6.4-6.4V6.4A6.4,6.4,0,0,0,27.753,0Zm-.181,20.9c-.115,1.422-1.2,3.236-2.7,3.5a114.874,114.874,0,0,1-15.574,0c-1.563-.2-2.59-2.079-2.7-3.5a40.364,40.364,0,0,1,0-7.668c.115-1.42,1.168-3.292,2.7-3.463a108.953,108.953,0,0,1,15.574,0c1.738.064,2.59,1.855,2.7,3.277A43.1,43.1,0,0,1,27.572,20.9Z"
          fill="#0a539e"
        />
        <path
          id="Path_49"
          data-name="Path 49"
          d="M222.477,199.234l6.4-4.27-6.4-4.27Z"
          transform="translate(-207.533 -177.886)"
          fill="#0a539e"
        />
      </g>
    </g>
  </g>
</svg>